<?xml version="1.0" encoding="UTF-8"?>
<svg id="Layer_1" data-name="Layer 1" xmlns="http://www.w3.org/2000/svg" version="1.1" viewBox="0 0 300 301.23">
  <defs>
    <style>
      .cls-1 {
        fill: #fff;
      }

      .cls-1, .cls-2 {
        stroke-width: 0px;
      }

      .cls-2 {
        fill: #08343f;
      }
    </style>
  </defs>
  <rect class="cls-2" x="0" width="300" height="300"/>
  <g>
    <path class="cls-1" d="M101.28,167.54c1.76,1.55,3.31,3.47,5.31,4.57,4.65,2.54,9.33,5.34,14.36,6.76,3.63,1.03,5.23,2.54,6.36,5.94,4.71,14.24,8.78,28.6,10.62,43.54.6,4.9,4.5,8.2,9.5,8.47,2.12.11,4.25.1,6.37-.03,4.8-.3,8.59-3.56,9.19-8.33,1.96-15.56,6.2-30.52,11.27-45.3.76-2.22,1.66-3.45,4.25-3.77,7.33-.89,13.37-4.59,18.68-9.57.87-.81,1.74-1.62,2.61-2.43.36.22.72.44,1.08.66-1.31,2.57-2.15,5.58-4.04,7.6-3.72,3.98-8.07,7.37-12.06,11.11-1.21,1.13-2.49,2.48-3.03,3.98-4.52,12.59-7.7,25.52-9.4,38.81-1.09,8.55-8,15.52-16.54,16.44-3.93.42-8.03.43-11.92-.17-7.84-1.2-14.31-8.41-15.3-16.44-1.64-13.3-4.87-26.22-9.41-38.8-.57-1.59-2.16-2.86-3.42-4.14-4.43-4.49-9.04-8.83-13.32-13.45-1.14-1.23-1.38-3.31-2.03-5,.3-.15.59-.3.89-.44Z"/>
    <path class="cls-1" d="M124.48,174.78c-3.24-1.87-6.49-3.65-9.6-5.64-.59-.38-1.02-1.72-.85-2.47,5.76-25.86-2.4-47.14-21.21-64.97-.24-.22-.32-.6-.51-.97,24.39,6.04,43.35,49.29,32.17,74.05Z"/>
    <path class="cls-1" d="M207.74,99.94c-4.97,6.31-10,11.75-13.95,17.89-9.29,14.42-11.73,30.3-8.13,47.03.61,2.85-.01,4.41-2.59,5.62-2.57,1.21-4.98,2.77-8.1,4.53-3.26-14.11-3.64-27.58,1.22-40.84,5.68-15.49,16.51-26.39,31.54-34.22Z"/>
    <path class="cls-1" d="M215.08,83.9c0,2.84.18,5.45-.09,8.02-.1.94-1.11,2.28-1.99,2.56-18.09,5.88-31.15,17.38-39.18,34.61-.08.16-.38.22-.58.33-3.6-18.22,20.97-45.13,41.84-45.53Z"/>
    <path class="cls-1" d="M84.45,84.13c19.28-1.89,44.58,25.53,42.52,46.37-.76-1.35-1.32-2.22-1.77-3.14-7.49-15.46-19.37-26.12-35.52-31.74-3.58-1.25-5.14-2.73-4.86-6.41.13-1.68-.23-3.39-.36-5.08Z"/>
    <path class="cls-1" d="M91.98,54.11c5.84,4.14,5.48,21.78,1.6,29.16-2.98-.8-6.05-1.62-9.81-2.63,6.67-7.74,8.64-16.52,8.2-26.53Z"/>
    <path class="cls-1" d="M207.51,53.71c.37,10.26,1.66,19.18,8.71,26.82-3.31.94-5.96,1.81-8.67,2.37-.65.13-2.06-.64-2.19-1.22-1.99-8.55-3.42-17.12.46-25.57.24-.53.67-.97,1.69-2.4Z"/>
  </g>
</svg>